HIERARCHY
ROOT Hips
{
	OFFSET 0.000000 83.214638 0.000000
	CHANNELS 6 Xposition Yposition Zposition Xrotation Yrotation Zrotation
	JOINT Pelvis
	{
		OFFSET 0.000000 0.000000 0.000000
		CHANNELS 3 Xrotation Yrotation Zrotation
		JOINT LeftUpLeg
		{
			OFFSET 8.479700 -4.795502 -0.379100
			CHANNELS 3 Xrotation Yrotation Zrotation
			JOINT LeftLeg
			{
				OFFSET 0.024144 -32.555107 0.112900
				CHANNELS 3 Xrotation Yrotation Zrotation
				JOINT LeftFoot
				{
					OFFSET -0.024144 -32.638630 -3.012600
					CHANNELS 3 Xrotation Yrotation Zrotation
					JOINT LeftToeBase
					{
						OFFSET 0.970200 -13.225400 11.864200
						CHANNELS 3 Xrotation Yrotation Zrotation
						End Site
						{
							OFFSET 0.000000 12.319262 0.000000
						}
					}
					JOINT LFootTongue
					{
						OFFSET 1.142400 -1.059800 6.665200
						CHANNELS 3 Xrotation Yrotation Zrotation
						End Site
						{
							OFFSET 0.000000 12.319262 0.000000
						}
					}
				}
				JOINT LeftPantLeg
				{
					OFFSET 0.918482 -16.533964 -2.284700
					CHANNELS 3 Xrotation Yrotation Zrotation
					End Site
					{
						OFFSET 0.350399 24.744368 0.000000
					}
				}
			}
		}
		JOINT RightUpLeg
		{
			OFFSET -8.479700 -4.795502 -0.379100
			CHANNELS 3 Xrotation Yrotation Zrotation
			JOINT RightLeg
			{
				OFFSET -0.023144 -32.555092 0.112900
				CHANNELS 3 Xrotation Yrotation Zrotation
				JOINT RightFoot
				{
					OFFSET 0.023144 -32.638641 -3.012700
					CHANNELS 3 Xrotation Yrotation Zrotation
					JOINT RightToeBase
					{
						OFFSET -0.970200 -13.225400 11.864200
						CHANNELS 3 Xrotation Yrotation Zrotation
						End Site
						{
							OFFSET 0.000000 12.319244 0.000000
						}
					}
					JOINT RFootTongue
					{
						OFFSET -1.142200 -1.059800 6.665200
						CHANNELS 3 Xrotation Yrotation Zrotation
						End Site
						{
							OFFSET 0.000000 12.319243 0.000000
						}
					}
				}
				JOINT RightPantLeg
				{
					OFFSET -0.919482 -16.533978 -2.284800
					CHANNELS 3 Xrotation Yrotation Zrotation
					End Site
					{
						OFFSET -0.350400 24.744419 0.000000
					}
				}
			}
		}
	}
	JOINT Spine
	{
		OFFSET 0.000000 7.722000 1.166200
		CHANNELS 3 Xrotation Yrotation Zrotation
		JOINT Spine1
		{
			OFFSET 0.000000 12.024101 0.248800
			CHANNELS 3 Xrotation Yrotation Zrotation
			JOINT Spine2
			{
				OFFSET 0.000000 11.502998 -0.491200
				CHANNELS 3 Xrotation Yrotation Zrotation
				JOINT Neck
				{
					OFFSET 0.000000 18.430702 -3.123100
					CHANNELS 3 Xrotation Yrotation Zrotation
					JOINT Head
					{
						OFFSET 0.000000 9.051102 1.034000
						CHANNELS 3 Xrotation Yrotation Zrotation
						JOINT HairB
						{
							OFFSET 0.208400 24.786102 24.822300
							CHANNELS 3 Xrotation Yrotation Zrotation
							End Site
							{
								OFFSET 0.000000 32.263779 0.000000
							}
						}
						JOINT HairA
						{
							OFFSET -7.081100 24.428299 23.196600
							CHANNELS 3 Xrotation Yrotation Zrotation
							End Site
							{
								OFFSET 0.000000 32.263779 0.000000
							}
						}
						JOINT Hat
						{
							OFFSET 16.728800 15.048294 -15.439601
							CHANNELS 3 Xrotation Yrotation Zrotation
							End Site
							{
								OFFSET 0.000000 32.263779 0.000000
							}
						}
					}
				}
				JOINT LeftShoulder
				{
					OFFSET 6.197800 13.665199 -4.064700
					CHANNELS 3 Xrotation Yrotation Zrotation
					JOINT LeftArm
					{
						OFFSET 7.778100 -0.187103 -1.709300
						CHANNELS 3 Xrotation Yrotation Zrotation
						JOINT LeftForeArm
						{
							OFFSET 22.049376 0.000000 0.000000
							CHANNELS 3 Xrotation Yrotation Zrotation
							JOINT LeftHand
							{
								OFFSET 23.009392 0.000000 0.000000
								CHANNELS 3 Xrotation Yrotation Zrotation
								JOINT LeftHandThumb1
								{
									OFFSET 3.507191 -2.063065 3.133727
									CHANNELS 3 Xrotation Yrotation Zrotation
									JOINT LeftHandThumb2
									{
										OFFSET 3.101337 -1.790558 1.790558
										CHANNELS 3 Xrotation Yrotation Zrotation
										JOINT LeftHandThumb3
										{
											OFFSET 3.058640 -1.765907 1.765906
											CHANNELS 3 Xrotation Yrotation Zrotation
											End Site
											{
												OFFSET -0.415260 3.926476 -0.049563
											}
										}
									}
								}
								JOINT LeftHandIndex1
								{
									OFFSET 11.334419 -0.901459 3.706815
									CHANNELS 3 Xrotation Yrotation Zrotation
									JOINT LeftHandIndex2
									{
										OFFSET 3.283112 0.000000 0.000000
										CHANNELS 3 Xrotation Yrotation Zrotation
										JOINT LeftHandIndex3
										{
											OFFSET 3.323853 0.000000 0.000000
											CHANNELS 3 Xrotation Yrotation Zrotation
											End Site
											{
												OFFSET -1.135597 3.097809 0.402452
											}
										}
									}
								}
								JOINT LeftHandMiddle1
								{
									OFFSET 11.335861 0.000000 0.000000
									CHANNELS 3 Xrotation Yrotation Zrotation
									JOINT LeftHandMiddle2
									{
										OFFSET 3.410492 0.000000 0.000000
										CHANNELS 3 Xrotation Yrotation Zrotation
										JOINT LeftHandMiddle3
										{
											OFFSET 3.312172 0.000000 0.000000
											CHANNELS 3 Xrotation Yrotation Zrotation
											End Site
											{
												OFFSET -1.150200 3.080154 0.400270
											}
										}
									}
								}
								JOINT LeftHandRing1
								{
									OFFSET 11.514786 -0.013176 -3.003090
									CHANNELS 3 Xrotation Yrotation Zrotation
									JOINT LeftHandRing2
									{
										OFFSET 3.053307 0.000000 0.000000
										CHANNELS 3 Xrotation Yrotation Zrotation
										JOINT LeftHandRing3
										{
											OFFSET 3.295807 0.000000 0.000000
											CHANNELS 3 Xrotation Yrotation Zrotation
											End Site
											{
												OFFSET -1.281006 3.013344 0.375733
											}
										}
									}
								}
								JOINT LeftHandPinky1
								{
									OFFSET 10.518692 -0.960396 -5.730441
									CHANNELS 3 Xrotation Yrotation Zrotation
									JOINT LeftHandPinky2
									{
										OFFSET 2.861649 0.000000 0.000000
										CHANNELS 3 Xrotation Yrotation Zrotation
										JOINT LeftHandPinky3
										{
											OFFSET 2.863380 0.000000 0.000000
											CHANNELS 3 Xrotation Yrotation Zrotation
											End Site
											{
												OFFSET -0.843597 2.711159 0.369971
											}
										}
									}
								}
							}
							JOINT LSleeve
							{
								OFFSET 6.676277 -0.344902 -1.011730
								CHANNELS 3 Xrotation Yrotation Zrotation
								End Site
								{
									OFFSET 0.000000 14.885353 0.000000
								}
							}
						}
					}
				}
				JOINT RightShoulder
				{
					OFFSET -6.197800 13.665199 -4.064700
					CHANNELS 3 Xrotation Yrotation Zrotation
					JOINT RightArm
					{
						OFFSET -7.778100 -0.187103 -1.709300
						CHANNELS 3 Xrotation Yrotation Zrotation
						JOINT RightForeArm
						{
							OFFSET -22.049376 0.000000 0.000000
							CHANNELS 3 Xrotation Yrotation Zrotation
							JOINT RightHand
							{
								OFFSET -23.009392 0.000000 0.000000
								CHANNELS 3 Xrotation Yrotation Zrotation
								JOINT RightHandThumb1
								{
									OFFSET -3.507191 -2.063065 3.133727
									CHANNELS 3 Xrotation Yrotation Zrotation
									JOINT RightHandThumb2
									{
										OFFSET -3.101337 -1.790558 1.790558
										CHANNELS 3 Xrotation Yrotation Zrotation
										JOINT RightHandThumb3
										{
											OFFSET -3.058640 -1.765907 1.765906
											CHANNELS 3 Xrotation Yrotation Zrotation
											End Site
											{
												OFFSET 0.415260 3.926476 -0.049563
											}
										}
									}
								}
								JOINT RightHandIndex1
								{
									OFFSET -11.334419 -0.901459 3.706815
									CHANNELS 3 Xrotation Yrotation Zrotation
									JOINT RightHandIndex2
									{
										OFFSET -3.283112 0.000000 0.000000
										CHANNELS 3 Xrotation Yrotation Zrotation
										JOINT RightHandIndex3
										{
											OFFSET -3.323853 0.000000 0.000000
											CHANNELS 3 Xrotation Yrotation Zrotation
											End Site
											{
												OFFSET 1.135597 3.097809 0.402452
											}
										}
									}
								}
								JOINT RightHandMiddle1
								{
									OFFSET -11.335861 0.000000 0.000000
									CHANNELS 3 Xrotation Yrotation Zrotation
									JOINT RightHandMiddle2
									{
										OFFSET -3.410492 0.000000 0.000000
										CHANNELS 3 Xrotation Yrotation Zrotation
										JOINT RightHandMiddle3
										{
											OFFSET -3.312172 0.000000 0.000000
											CHANNELS 3 Xrotation Yrotation Zrotation
											End Site
											{
												OFFSET 1.150200 3.080154 0.400270
											}
										}
									}
								}
								JOINT RightHandRing1
								{
									OFFSET -11.514786 -0.013176 -3.003090
									CHANNELS 3 Xrotation Yrotation Zrotation
									JOINT RightHandRing2
									{
										OFFSET -3.053307 0.000000 0.000000
										CHANNELS 3 Xrotation Yrotation Zrotation
										JOINT RightHandRing3
										{
											OFFSET -3.295807 0.000000 0.000000
											CHANNELS 3 Xrotation Yrotation Zrotation
											End Site
											{
												OFFSET 1.281006 3.013344 0.375733
											}
										}
									}
								}
								JOINT RightHandPinky1
								{
									OFFSET -10.518692 -0.960396 -5.730441
									CHANNELS 3 Xrotation Yrotation Zrotation
									JOINT RightHandPinky2
									{
										OFFSET -2.861649 0.000000 0.000000
										CHANNELS 3 Xrotation Yrotation Zrotation
										JOINT RightHandPinky3
										{
											OFFSET -2.863380 0.000000 0.000000
											CHANNELS 3 Xrotation Yrotation Zrotation
											End Site
											{
												OFFSET 0.843597 2.711159 0.369971
											}
										}
									}
								}
							}
							JOINT RSleeve
							{
								OFFSET -6.676277 -0.344902 -1.011730
								CHANNELS 3 Xrotation Yrotation Zrotation
								End Site
								{
									OFFSET 0.000000 14.885353 0.000000
								}
							}
						}
					}
				}
				JOINT Backpack
				{
					OFFSET 0.000000 -2.471497 36.677502
					CHANNELS 3 Xrotation Yrotation Zrotation
					End Site
					{
						OFFSET 0.000000 20.427315 0.000000
					}
				}
				JOINT Hood
				{
					OFFSET 0.000000 18.754097 -10.431000
					CHANNELS 3 Xrotation Yrotation Zrotation
					JOINT Hood1
					{
						OFFSET 0.000000 -5.011002 -7.685901
						CHANNELS 3 Xrotation Yrotation Zrotation
						End Site
						{
							OFFSET 0.000000 9.175140 0.000000
						}
					}
				}
				JOINT LHoodieString
				{
					OFFSET 5.250500 16.397697 3.089900
					CHANNELS 3 Xrotation Yrotation Zrotation
					JOINT LHoodieString1
					{
						OFFSET 0.257700 -6.364304 3.694600
						CHANNELS 3 Xrotation Yrotation Zrotation
						JOINT LHoodieString2
						{
							OFFSET 0.000000 -9.643799 2.679100
							CHANNELS 3 Xrotation Yrotation Zrotation
							End Site
							{
								OFFSET 0.000000 10.009018 0.000000
							}
						}
					}
				}
				JOINT RHoodieString
				{
					OFFSET -5.250500 16.397697 3.089900
					CHANNELS 3 Xrotation Yrotation Zrotation
					JOINT RHoodieString1
					{
						OFFSET -0.257700 -6.364304 3.694600
						CHANNELS 3 Xrotation Yrotation Zrotation
						JOINT RHoodieString2
						{
							OFFSET 0.000000 -9.643799 2.679100
							CHANNELS 3 Xrotation Yrotation Zrotation
							End Site
							{
								OFFSET 0.000000 10.009018 0.000000
							}
						}
					}
				}
			}
			JOINT LBackpack_Strap
			{
				OFFSET 15.223200 -7.719803 -6.610900
				CHANNELS 3 Xrotation Yrotation Zrotation
				End Site
				{
					OFFSET 0.000000 16.040596 0.000000
				}
			}
			JOINT RBackpack_Strap
			{
				OFFSET -15.223000 -7.719803 -6.610900
				CHANNELS 3 Xrotation Yrotation Zrotation
				End Site
				{
					OFFSET 0.000000 16.040596 0.000000
				}
			}
		}
	}
	JOINT BoyFacialAnim_Joint
	{
		OFFSET 1.000000 -82.208099 -1.550900
		CHANNELS 3 Xrotation Yrotation Zrotation
		End Site
		{
			OFFSET 0.000000 30.012791 0.000000
		}
	}
}
MOTION
Frames: 5
Frame Time: 0.016667
-0.071145 87.869682 -3.773705 -89.648425 0.345780 0.885151 0.000000 -0.000000 -0.000000 -6.188560 17.032793 19.247027 4.684166 7.698515 0.312756 29.985999 29.307614 -30.698087 0.000001 0.000002 -0.000001 0.000001 0.000002 -0.000001 0.000000 0.000000 -0.000001 -5.265363 -16.853193 -12.909801 2.731736 -7.582398 -7.549098 39.882694 -29.331622 30.401356 0.000003 -0.000001 0.000001 0.000003 -0.000001 0.000001 -0.000000 -0.000002 0.000002 1.063460 -1.169252 0.790125 -0.317547 -2.434542 0.230483 -0.303413 -2.418346 0.331942 -10.007545 0.108424 -1.808070 8.693202 -2.170252 1.510697 -0.000000 -0.000000 0.000000 -0.000000 -0.000000 0.000000 -0.000000 -0.000000 0.000000 0.422244 -0.102939 -3.997470 35.266555 -28.376665 -54.536950 0.000415 -80.459601 0.000417 -13.956470 -3.099390 -10.083755 6.590537 -4.958658 16.122658 7.178868 21.567326 2.147320 -0.000002 0.000001 -0.000001 0.659518 4.932366 -26.024464 0.169802 1.401620 -13.813540 -0.000003 -0.000001 -0.000002 1.376917 6.461969 -24.994174 0.169869 1.401977 -13.817113 -0.000001 -0.000002 -0.000002 2.098732 8.644298 -21.209681 0.169782 1.401610 -13.813555 -0.000003 0.000003 0.000000 2.123442 10.735866 -14.817561 0.167494 1.392250 -13.719333 -0.000000 0.000001 -0.000004 -0.000001 -0.000004 0.000001 0.672261 1.791889 13.905685 39.524409 30.882058 33.636363 0.000614 101.353321 -0.000621 -34.912020 -9.308814 11.148399 -13.115376 7.814918 -0.093421 7.918264 -27.751653 -3.100770 -0.000002 0.000006 0.000004 2.082841 12.897794 37.347457 0.497043 -2.095306 26.687146 -0.000001 0.000001 0.000002 -4.321316 1.650216 38.533489 0.529972 -2.159510 27.573960 0.000000 0.000000 -0.000002 -1.394401 -1.262394 31.742017 0.254152 -1.518991 18.997020 -0.000003 0.000001 -0.000001 0.189710 -3.422245 14.147215 0.162223 -1.219721 15.150956 0.000000 0.000001 -0.000001 0.000000 -0.000000 -0.000000 -0.000000 -0.000000 0.000000 -0.000000 -0.000000 0.000000 -0.000000 -0.000000 0.000000 -0.000000 -0.000000 0.000000 -0.000000 -0.000000 0.000000 -0.000000 -0.000000 0.000000 -0.000000 -0.000000 0.000000 -0.000000 -0.000000 0.000000 -0.000000 -0.000000 0.000000 0.000000 0.000000 0.000000 0.000000 0.000000 0.000000 0.000000 -0.000000 -0.000000 
-0.070497 87.870300 -3.772644 -89.647756 0.345556 0.884300 -0.000000 -0.000000 -0.000000 -6.177237 17.010378 19.263739 4.763572 7.717459 0.294102 29.990732 29.306286 -30.663089 -0.000000 0.000001 0.000000 -0.000000 0.000001 0.000000 -0.000001 -0.000000 -0.000001 -5.282542 -16.851974 -12.907444 2.756424 -7.584623 -7.564137 39.848591 -29.337708 30.403604 -0.000000 0.000001 -0.000000 -0.000000 0.000001 -0.000000 -0.000000 0.000001 0.000001 1.063621 -1.302476 0.791317 -0.267800 -2.803662 0.269861 -0.275045 -2.540291 0.378853 -10.308423 0.108422 -1.848249 8.590543 -2.164040 1.438077 -0.000000 0.000000 -0.000000 -0.000000 0.000000 -0.000000 -0.000000 0.000000 -0.000000 0.286872 1.338427 -4.208839 35.597402 -28.973939 -53.870675 0.000449 -80.449848 0.000468 -14.006718 -2.990157 -10.115708 6.590530 -4.958660 16.122665 7.178867 21.567335 2.147314 -0.000003 0.000000 -0.000002 0.659515 4.932365 -26.024464 0.169800 1.401613 -13.813533 -0.000003 -0.000002 -0.000002 1.376919 6.461966 -24.994176 0.169876 1.401970 -13.817119 0.000001 0.000001 -0.000001 2.098734 8.644294 -21.209677 0.169784 1.401612 -13.813551 -0.000000 -0.000006 -0.000003 2.123443 10.735865 -14.817561 0.167491 1.392248 -13.719336 0.000003 -0.000003 0.000001 -0.000002 -0.000000 0.000004 0.632470 1.910001 13.900111 39.216808 31.338465 32.961646 0.000155 101.513994 -0.000151 -32.241539 -5.778559 11.438757 -12.649662 7.487826 0.310905 7.918264 -27.751655 -3.100781 0.000001 0.000001 0.000004 1.826891 12.388898 38.175672 0.531852 -2.163125 27.624073 0.000001 -0.000000 0.000002 -4.275605 1.292268 39.774616 0.580790 -2.254090 28.893742 -0.000001 -0.000000 -0.000000 -1.400940 -1.500350 33.624325 0.307058 -1.664658 20.900889 -0.000003 -0.000000 0.000000 0.245554 -3.624124 16.721700 0.221500 -1.420587 17.723383 -0.000000 0.000000 -0.000001 0.000000 0.000001 0.000000 0.000000 -0.000001 0.000000 0.000000 -0.000001 0.000000 0.000000 -0.000001 0.000000 0.000000 -0.000001 0.000000 0.000000 -0.000001 0.000000 0.000000 -0.000001 0.000000 0.000000 -0.000001 0.000000 0.000000 -0.000001 0.000000 0.000000 -0.000001 0.000000 0.000000 0.000001 -0.000000 0.000000 0.000001 -0.000000 -0.000000 -0.000000 -0.000000 
-0.071521 87.875313 -3.769997 -89.646923 0.344596 0.885189 -0.000000 -0.000000 -0.000000 -6.170512 17.007502 19.267347 4.787141 7.726780 0.269420 30.039213 29.304315 -30.660948 -0.000000 -0.000000 0.000001 -0.000000 -0.000000 0.000000 -0.000000 -0.000002 -0.000000 -5.303578 -16.846991 -12.891495 2.835527 -7.567116 -7.602408 39.728465 -29.380626 30.396893 0.000001 -0.000001 -0.000000 0.000001 -0.000001 -0.000000 0.000001 0.000001 -0.000002 1.069434 -1.486902 0.792375 -0.122002 -3.167863 0.318245 -0.192742 -2.885992 0.467763 -10.438625 0.101447 -1.869203 8.494244 -2.149571 1.244426 -0.000000 -0.000000 -0.000000 -0.000000 -0.000000 -0.000000 -0.000000 -0.000000 -0.000000 0.143295 2.780179 -4.408304 35.798063 -29.342134 -53.528001 -0.000243 -80.441153 -0.000237 -13.903209 -3.035548 -10.126498 6.590534 -4.958662 16.122663 7.178864 21.567326 2.147315 -0.000002 0.000000 -0.000001 0.659517 4.932362 -26.024465 0.169801 1.401618 -13.813542 -0.000001 -0.000000 -0.000002 1.376919 6.461966 -24.994172 0.169875 1.401970 -13.817113 -0.000002 0.000000 0.000002 2.098733 8.644298 -21.209674 0.169778 1.401612 -13.813546 0.000001 0.000001 -0.000000 2.123444 10.735865 -14.817559 0.167487 1.392249 -13.719337 0.000002 -0.000001 -0.000002 0.000001 0.000003 0.000003 0.595529 2.019711 13.895006 37.989427 32.092296 32.256323 -0.000082 101.960101 0.000069 -30.034254 -3.162331 11.679198 -12.147816 7.137443 0.751214 7.918264 -27.751653 -3.100782 0.000001 -0.000002 0.000004 1.566996 11.835559 39.062193 0.570623 -2.235590 28.634258 -0.000000 0.000001 0.000004 -4.213779 0.910820 41.113467 0.638009 -2.354711 30.316754 0.000001 -0.000001 0.000001 -1.397920 -1.756070 35.653990 0.369472 -1.819640 22.953757 -0.000000 -0.000000 0.000002 0.315879 -3.838713 19.498129 0.295441 -1.633930 20.497206 -0.000001 -0.000001 0.000002 0.000000 -0.000000 -0.000001 -0.000000 -0.000000 0.000000 -0.000000 -0.000000 0.000000 -0.000000 -0.000000 0.000000 -0.000000 -0.000000 0.000000 -0.000000 -0.000000 0.000000 -0.000000 0.000001 0.000000 -0.000000 -0.000000 0.000000 -0.000000 -0.000000 0.000000 -0.000000 0.000001 0.000000 -0.000000 0.000000 -0.000000 -0.000000 0.000000 -0.000000 -0.000000 -0.000000 -0.000000 
-0.078124 87.878250 -3.766068 -89.642025 0.326571 0.889091 0.000000 0.000000 -0.000000 -6.162628 17.002839 19.278660 4.817821 7.764216 0.240730 30.079313 29.302283 -30.659616 -0.000000 -0.000000 0.000001 -0.000000 -0.000000 0.000000 0.000000 -0.000002 -0.000001 -5.348330 -16.836290 -12.866028 2.965883 -7.537734 -7.659460 39.527152 -29.444092 30.386156 -0.000000 -0.000002 0.000000 -0.000000 -0.000002 0.000000 0.000000 0.000002 0.000000 1.016789 -1.606983 0.791246 -0.004325 -3.399446 0.363598 -0.116516 -3.107313 0.517953 -10.409527 0.091392 -1.902494 8.391086 -2.126794 0.943352 -0.000000 0.000001 0.000000 -0.000000 0.000001 0.000000 -0.000000 0.000001 0.000000 -0.087596 3.411968 -4.598579 36.070243 -29.254725 -53.441610 0.000287 -80.534098 0.000296 -13.803852 -3.053164 -10.111807 6.590530 -4.958662 16.122660 7.178863 21.567328 2.147315 -0.000003 -0.000003 -0.000001 0.659515 4.932365 -26.024464 0.169802 1.401619 -13.813542 0.000001 -0.000001 -0.000002 1.376917 6.461965 -24.994174 0.169872 1.401974 -13.817118 -0.000000 -0.000002 -0.000000 2.098730 8.644293 -21.209677 0.169785 1.401610 -13.813555 -0.000002 0.000001 -0.000000 2.123440 10.735864 -14.817561 0.167492 1.392242 -13.719342 0.000001 -0.000001 -0.000000 -0.000004 0.000002 0.000002 0.552931 2.146239 13.889197 36.351274 32.916229 31.673063 0.000430 102.444600 -0.000417 -28.112847 -0.954738 11.594357 -11.615839 6.768540 1.222995 7.918263 -27.751655 -3.100776 0.000003 0.000001 0.000006 1.309538 11.243908 39.995310 0.613123 -2.311672 29.705527 -0.000001 0.000001 0.000005 -4.134197 0.511804 42.534259 0.701399 -2.459822 31.825915 0.000000 0.000001 0.000002 -1.383346 -2.025843 37.806665 0.441685 -1.981421 25.130919 -0.000001 0.000000 0.000000 0.401767 -4.062259 22.443196 0.385037 -1.855946 23.439080 -0.000001 -0.000000 0.000002 -0.000001 0.000000 0.000000 0.000000 0.000000 0.000000 0.000000 0.000000 0.000000 0.000000 0.000000 0.000000 0.000000 0.000000 0.000000 0.000000 0.000000 0.000000 0.000000 0.000000 0.000000 0.000000 0.000000 0.000000 0.000000 0.000000 0.000000 0.000000 0.000000 0.000000 0.000000 -0.000000 0.000000 0.000000 -0.000000 0.000000 0.000000 0.000000 -0.000000 
-0.087418 87.882759 -3.763451 -89.634273 0.288979 0.897377 -0.000000 0.000000 -0.000000 -6.154691 17.001203 19.289306 4.848028 7.793509 0.205872 30.098670 29.300429 -30.659367 -0.000000 0.000001 0.000001 -0.000000 0.000001 0.000000 0.000001 0.000003 0.000001 -5.410285 -16.821238 -12.837312 3.129872 -7.500372 -7.729593 39.262455 -29.504761 30.363944 -0.000001 -0.000000 -0.000000 -0.000001 -0.000000 -0.000000 -0.000000 0.000001 0.000002 0.969281 -1.717179 0.778379 0.194116 -3.606527 0.416353 0.025596 -3.299262 0.562685 -10.333470 0.079274 -1.949322 8.269073 -2.095621 0.548456 -0.000000 -0.000000 -0.000000 -0.000000 -0.000000 -0.000000 -0.000000 -0.000000 -0.000000 -0.239434 3.890324 -4.805998 36.148134 -29.060409 -53.421604 0.000009 -80.642350 -0.000000 -13.636750 -3.113945 -10.092450 6.590530 -4.958655 16.122660 7.178869 21.567333 2.147319 -0.000005 -0.000000 -0.000004 0.659515 4.932363 -26.024464 0.169795 1.401615 -13.813543 0.000001 -0.000001 -0.000002 1.376914 6.461966 -24.994176 0.169871 1.401974 -13.817114 0.000001 -0.000003 -0.000000 2.098727 8.644291 -21.209677 0.169785 1.401615 -13.813553 -0.000000 0.000001 -0.000002 2.123439 10.735860 -14.817561 0.167488 1.392252 -13.719332 0.000001 0.000002 0.000000 -0.000000 0.000001 0.000000 0.496195 2.314827 13.881619 34.462488 33.833929 31.298147 0.000220 102.688336 -0.000212 -25.929075 1.097994 11.474219 -11.059812 6.385806 1.721683 7.918265 -27.751655 -3.100778 0.000001 -0.000001 0.000001 1.060238 10.620364 40.963568 0.659077 -2.390353 30.825699 -0.000001 0.000000 0.000004 -4.035787 0.101141 44.021136 0.770623 -2.567898 33.404041 -0.000001 0.000000 -0.000000 -1.355717 -2.305869 40.058090 0.523711 -2.147513 27.407688 -0.000002 -0.000001 0.000002 0.503778 -4.290951 25.523620 0.490794 -2.082844 26.515723 0.000001 -0.000001 0.000002 -0.000002 -0.000001 -0.000003 0.000000 0.000000 0.000000 0.000000 0.000000 0.000000 0.000000 0.000000 0.000000 0.000000 0.000000 0.000000 0.000000 0.000000 0.000000 0.000000 -0.000000 0.000000 0.000000 0.000000 0.000000 0.000000 0.000000 0.000000 0.000000 -0.000000 0.000000 -0.000000 0.000000 0.000000 -0.000000 0.000000 0.000000 -0.000000 0.000000 -0.000000 
